# xmcd CD database file
#
# Track frame offsets:
#	150
#	13996
#	27975
#	41401
#	54306
#	67547
#	81802
#	95629
#	108523
#	122360
#	135236
#	148967
#	162294
#	175636
#	189531
#	201161
#	212675
#	227395
#	256051
#	266816
#
# Disc length: 3737 seconds
#
# Revision: 1
# Processed by: cddbd v1.5.2PL0 Copyright (c) Steve Scherf et al.
# Submitted via: CDex 1.51
#
DISCID=090e9714
DTITLE=B B King and Friends - Ambassador Of The Blues
DYEAR=2012
DGENRE=R&B
TTITLE0=R.B. King - 3 O'Clock Blues
TTITLE1=R.B. King/J. Taub - You Know I Love You
TTITLE2=R.B. King/J. Taub - Woke Up This Morning
TTITLE3=R.B. King/J. Taub - Plese Love Me
TTITLE4=J.L Williamson - When My Heart Beats Like a Hammer
TTITLE5=M. Davis/J. Josea - Whole Lota Love
TTITLE6=R.B. King/J. Taub - You Upset My Baby
TTITLE7=P. Chatman - Every Day I Have the Bluse
TTITLE8=J.M. Robinson - Sneakin' Around
TTITLE9=R.B. King/J. Taub - Ten Long Years
TTITLE10=H. Whittaker - Cryin' Won't Help You
TTITLE11=J. Miles - On My Word Of Honor
TTITLE12=I.J. Hunter - Bad Luck
TTITLE13=L. Bogan/Smith - Sweet Little Angel
TTITLE14=C. Garlow - Please Accept My Love
TTITLE15=R. Petway - Catfish Blues
TTITLE16=R.B. King/S. Ling - I've Got A Right To Love My Baby
TTITLE17=R.B. King/J. Taub - Sweet Sixten
TTITLE18=R.B. King/J. Taub - I'm King
TTITLE19=R.B. King/J. Josea - Gonna Miss You Around Here
EXTD=YEAR: 2012
EXTT0=
EXTT1=
EXTT2=
EXTT3=
EXTT4=
EXTT5=
EXTT6=
EXTT7=
EXTT8=
EXTT9=
EXTT10=
EXTT11=
EXTT12=
EXTT13=
EXTT14=
EXTT15=
EXTT16=
EXTT17=
EXTT18=
EXTT19=
PLAYORDER=
